<svg width="1000" height="1001" viewBox="0 0 1000 1001" fill="none" xmlns="http://www.w3.org/2000/svg">
<path d="M900 0.831055H100C44.7715 0.831055 0 45.6026 0 100.831V900.831C0 956.06 44.7715 1000.83 100 1000.83H900C955.228 1000.83 1000 956.06 1000 900.831V100.831C1000 45.6026 955.228 0.831055 900 0.831055Z" fill="#004141"/>
<path d="M725.552 279.492C603.621 157.561 405.483 157.561 283.552 279.492C233.92 329.124 204.61 391.652 195.231 456.135C181.943 550.319 211.254 649.192 283.552 721.491C355.851 793.789 454.724 823.099 548.908 809.815C613.782 800.433 675.92 771.123 725.552 721.491C847.481 599.56 847.481 401.423 725.552 279.492ZM687.644 683.582C653.253 717.974 611.828 740.25 568.058 751.583C482.471 773.077 387.897 750.411 321.069 683.582C254.242 616.755 231.575 522.182 253.07 436.595C264.012 392.824 286.679 351.399 321.069 317.008C415.644 222.434 565.323 216.572 666.931 298.641C673.966 304.503 681.001 310.366 687.253 317.008C693.897 323.652 699.759 330.295 705.621 337.33C788.471 439.33 782.218 589.4 687.644 683.582Z" fill="white"/>
<path d="M725.553 279.491L321.462 683.582L283.553 721.491C211.254 649.192 181.944 550.319 195.231 456.135L253.461 436.595L667.322 298.64L725.553 279.491Z" fill="white"/>
<path d="M725.553 279.493L706.012 337.723L568.449 751.583L548.909 809.815C454.725 823.099 355.852 793.791 283.553 721.492L321.46 683.584L725.553 279.493Z" fill="#F7A600"/>
</svg>
