<svg width="100" height="101" viewBox="0 0 100 101" fill="none" xmlns="http://www.w3.org/2000/svg">
<g clip-path="url(#clip0_503_6)">
<path d="M85.3656 15.1727C65.8527 -4.34011 34.1445 -4.34011 14.6317 15.1727C6.68902 23.1154 1.99844 33.1218 0.497466 43.4412C-1.62893 58.5136 3.06165 74.3364 14.6317 85.9065C26.2018 97.4764 42.0246 102.167 57.097 100.041C67.4789 98.5397 77.4228 93.8491 85.3656 85.9065C104.878 66.3937 104.878 34.6855 85.3656 15.1727ZM79.299 79.8399C73.7955 85.3436 67.1662 88.9085 60.1615 90.7222C46.465 94.1618 31.3301 90.5345 20.6356 79.8399C9.94115 69.1454 6.31377 54.0107 9.75351 40.3142C11.5047 33.3095 15.1321 26.6802 20.6356 21.1765C35.7705 6.0417 59.7238 5.10357 75.9843 18.2372C77.1101 19.1753 78.2359 20.1135 79.2365 21.1765C80.2997 22.2398 81.2378 23.3029 82.1759 24.4287C95.4345 40.7519 94.4339 64.7677 79.299 79.8399V79.8399Z" fill="#565656"/>
<path d="M85.3656 15.1726L20.6983 79.8398L14.6317 85.9064C3.06165 74.3363 -1.62893 58.5135 0.497466 43.4411L9.81605 40.3141L76.0468 18.2371L85.3656 15.1726Z" fill="#565656"/>
<path d="M85.3656 15.1729L82.2384 24.4915L60.224 90.7222L57.097 100.041C42.0246 102.167 26.2018 97.4767 14.6317 85.9066L20.6981 79.8402L85.3656 15.1729Z" fill="black"/>
</g>
<defs>
<clipPath id="clip0_503_6">
<rect width="100" height="100" fill="white" transform="translate(0 0.538086)"/>
</clipPath>
</defs>
</svg>
